PathFileType	3	(X/Y/Z)	D:\minhoCalibration\240510\subject1_KPNP\preferred\preferred18.trc
DataRate	CameraRate	NumFrames	NumMarkers	Units	OrigDataRate	OrigDataStartFrame	OrigNumFrames
200.0	200.0	21	10	mm	200.0	1163	152	
Frame#	Time	Left_Ankle_Outer1			Left_Ankle_Inner1			Left_Knee_Outer1			Left_Knee_Inner1			Left_Wrist1			Right_Wrist1			Right_Knee_Inner1			Right_Knee_Outer1			Right_Ankle_Inner1			Right_Ankle_Outer1			
		X1	Y1	Z1	X2	Y2	Z2	X3	Y3	Z3	X4	Y4	Z4	X5	Y5	Z5	X6	Y6	Z6	X7	Y7	Z7	X8	Y8	Z8	X9	Y9	Z9	X10	Y10	Z10	
1163	5.805	-492.03979	123.21156	-593.62848	-546.49573	125.4156	-586.07758	-487.70801	540.13745	-401.28046	-592.43396	506.52713	-438.45016	-457.00217	951.44507	-595.81567	-729.22009	965.99725	-817.6676	-810.76355	496.28659	-766.85968	-853.63647	545.99152	-868.4361	-679.45172	179.26894	-1064.0709	-750.92645	191.78894	-1147.0608
1164	5.81	-490.46265	122.51242	-593.55817	-544.80591	124.9943	-586.51868	-486.3591	539.82239	-401.91745	-590.80994	506.24402	-439.97528	-454.86346	954.27618	-592.18683	-728.44897	968.13043	-812.52795	-816.74316	500.18997	-753.39954	-860.23993	549.47906	-853.86182	-684.02948	187.97684	-1055.8257	-756.01233	200.77501	-1138.0325
1165	5.815	-489.24976	122.12829	-593.4939	-543.83936	124.78535	-586.70178	-484.87411	539.78394	-402.82681	-589.27783	506.70297	-441.06274	-452.67389	957.33807	-588.78094	-727.96722	970.41168	-807.4162	-822.42841	505.6413	-737.6131	-866.49792	553.09198	-838.13519	-688.49646	197.34955	-1046.7988	-761.17218	210.25211	-1127.9783
1166	5.82	-488.49878	121.84004	-593.40973	-542.91058	124.67101	-586.92462	-483.27292	540.00726	-404.05978	-587.17645	507.33179	-442.60449	-450.32324	960.50201	-585.69849	-727.94391	972.30634	-802.42615	-826.78204	510.83362	-721.89197	-872.72015	557.13092	-822.27332	-691.93268	207.76643	-1037.585	-766.32965	219.85425	-1116.9619
1167	5.825	-487.9939	121.65357	-593.30621	-542.32001	124.70317	-586.9845	-481.62955	540.495	-405.61124	-585.36932	508.49332	-443.81595	-447.88474	963.78668	-582.87323	-727.91565	975.66986	-796.61414	-829.93793	516.04852	-705.7207	-878.70715	561.53217	-805.71722	-694.34741	219.5038	-1027.9116	-771.26038	229.57613	-1105.2332
1168	5.83	-487.39471	121.68291	-593.32385	-541.75543	124.94008	-587.10101	-479.86798	541.23993	-407.53613	-583.47638	509.73193	-445.08136	-445.2247	967.17542	-580.33246	-728.42554	978.7218	-790.7226	-832.65668	521.98389	-689.82983	-884.24408	566.12653	-788.7182	-696.25507	231.86546	-1018.2072	-775.93359	239.46753	-1092.6606
1169	5.835	-486.80774	121.73964	-593.23657	-541.19299	125.10839	-587.16895	-478.14758	542.21729	-409.83157	-581.47723	511.19678	-446.55347	-442.31003	970.61377	-578.27234	-729.55194	982.30573	-784.5957	-834.17419	527.29034	-674.15784	-889.30151	571.06995	-771.33795	-698.02808	245.37938	-1007.9208	-779.61133	248.74883	-1079.0464
1170	5.84	-486.15201	121.82349	-593.19531	-540.44244	125.48253	-587.20703	-476.31662	543.35931	-412.38672	-579.45947	512.7431	-448.34372	-439.07864	974.16687	-576.7348	-730.46869	985.77106	-777.34766	-835.37592	533.51764	-656.13446	-893.69104	576.18518	-753.51776	-698.02722	259.79916	-997.50079	-782.53638	258.20758	-1064.9048
1171	5.845	-485.28622	122.04693	-593.16785	-539.51056	125.74921	-587.29187	-474.48221	544.60522	-415.26105	-577.29028	514.37366	-450.46811	-435.43481	977.73309	-575.78668	-732.27539	990.14954	-769.97174	-835.90454	539.41138	-639.0899	-897.26599	581.53558	-735.42065	-697.59436	274.96338	-986.18512	-784.1911	267.37891	-1050.3037
1172	5.85	-484.23102	122.3427	-593.17419	-538.35687	126.18127	-587.31561	-472.52615	545.98273	-418.3255	-574.83722	516.24634	-452.70871	-431.41995	981.28711	-575.6394	-733.74139	994.80951	-761.45795	-835.80249	545.29321	-622.15686	-900.09747	586.94958	-716.97272	-696.38275	290.74207	-973.62646	-784.10718	277.50519	-1035.9005
1173	5.855	-483.11026	122.64427	-593.10889	-537.21631	126.87066	-587.4812	-470.50253	547.46344	-421.58557	-572.66327	517.78589	-456.0275	-427.03265	984.72864	-576.51343	-735.69867	999.43762	-751.80774	-834.78125	551.18842	-604.19299	-901.95789	592.53473	-697.90027	-694.06177	306.49094	-960.61969	-782.54639	289.26508	-1021.7382
1174	5.86	-481.77762	123.05849	-593.2157	-535.8407	127.49328	-587.68286	-468.21384	549.1391	-425.04578	-569.9823	519.32208	-460.43259	-422.38751	988.0885	-578.72894	-737.69379	1004.3864	-741.47711	-832.92975	557.09906	-585.80139	-903.36115	598.31036	-678.58954	-691.15979	322.01965	-946.013	-779.22424	302.43527	-1007.1815
1175	5.865	-480.35413	123.67985	-593.38879	-534.45184	128.1264	-587.76038	-465.71826	550.97101	-428.83371	-567.48285	521.10529	-464.43768	-417.23538	991.30414	-581.75037	-739.37927	1009.6928	-730.30054	-830.24274	563.27087	-566.84631	-903.62805	603.90778	-657.15302	-688.14185	337.76529	-930.33081	-775.74097	317.37329	-992.60236
1176	5.87	-479.11755	124.19984	-593.55048	-532.91235	128.84766	-587.91443	-462.84894	552.9389	-432.82269	-565.1286	523.27875	-468.13327	-411.88437	994.33752	-585.54877	-740.95709	1015.2614	-718.53259	-826.52698	569.60699	-547.11163	-903.63409	610.2179	-635.87958	-685.07684	353.73056	-914.36859	-772.01526	333.40103	-977.33295
1177	5.875	-477.84332	124.91516	-593.81982	-531.66998	130.00392	-587.98932	-459.73212	555.01019	-437.10367	-561.76428	525.92072	-472.47504	-406.491	997.26941	-590.21686	-742.39185	1021.0868	-706.01495	-822.2337	576.43469	-526.98395	-902.66394	616.94366	-613.85345	-681.78271	370.37286	-898.2757	-768.77716	350.43985	-961.73309
1178	5.88	-476.75272	125.70933	-594.09174	-530.77509	131.04166	-587.42908	-455.55823	557.39307	-442.00476	-557.44177	528.41553	-477.35046	-401.09668	1000.3189	-595.45343	-742.44714	1026.3733	-694.14221	-816.47241	584.01843	-506.81711	-900.97919	624.09698	-590.11969	-679.00342	387.39359	-882.1123	-766.24359	368.04593	-945.60638
1179	5.885	-475.85126	126.73351	-594.26355	-529.72589	132.5625	-587.34509	-451.49741	559.64465	-446.86899	-554.91852	530.56543	-480.79788	-395.89722	1003.6088	-601.28857	-742.11871	1032.266	-681.55115	-809.46973	592.34814	-485.36877	-898.24146	631.76581	-566.22437	-677.35193	404.45975	-865.77441	-764.55603	386.63672	-929.03668
1180	5.89	-475.18954	127.99248	-594.51361	-528.94946	134.26636	-586.88678	-446.99377	562.08643	-451.82922	-551.31439	533.01166	-484.28232	-390.95706	1007.0886	-607.49835	-741.18256	1037.9414	-668.8421	-801.40057	601.45734	-463.92831	-894.62817	640.20776	-541.5683	-676.10699	422.58047	-849.4679	-764.15698	405.41574	-911.76349
1181	5.895	-474.81174	129.59511	-594.66559	-528.4975	136.3004	-586.2243	-441.93832	564.71326	-456.90872	-547.2168	535.7926	-487.57657	-386.43185	1010.5555	-614.12976	-739.58081	1044.1273	-656.43768	-792.20245	611.16864	-442.71811	-889.69495	648.90448	-516.34943	-675.65417	441.46786	-833.28577	-765.2251	424.27167	-893.7702
1182	5.9	-474.86642	131.31815	-594.67017	-528.34528	138.68385	-585.14441	-436.38849	567.5116	-462.00027	-542.42322	539.08569	-490.3761	-382.49341	1014.4185	-621.10272	-737.57123	1049.9465	-643.93158	-781.66504	621.75238	-421.0072	-883.26276	658.32867	-490.60052	-676.03558	461.07959	-817.21051	-767.62097	443.46564	-875.23041
1183	5.905	-475.07156	133.41437	-594.67157	-528.42712	141.32324	-583.71368	-430.30759	570.44702	-467.11517	-537.10803	541.6629	-494.13507	-378.98425	1018.1601	-628.74225	-735.12048	1055.9579	-631.72388	-770.01202	632.99939	-399.43143	-875.52502	668.52911	-464.46097	-677.40588	481.26538	-801.10809	-771.35376	462.69391	-854.01721
